<svg width="39" height="39" viewBox="0 0 39 39" fill="none" xmlns="http://www.w3.org/2000/svg">
<path d="M20.3902 0.711348C19.7223 0.422552 19.3136 0.422552 18.6458 0.711348C16.349 1.70451 17.4304 10.1578 18.3403 15.3876C16.3554 10.4643 12.8165 2.71164 10.3413 3.07897C9.62157 3.18578 9.27434 3.40129 8.85918 3.99886C7.55143 5.88119 11.9525 11.5869 15.4149 15.5787C11.2859 12.2811 5.40633 8.11514 3.5786 9.49819C2.99837 9.93725 2.79713 10.2929 2.7196 11.0164C2.46876 13.3574 9.43852 16.3476 14.4279 18.1785C9.18382 17.315 1.64519 16.4854 0.710738 18.6464C0.421942 19.3143 0.421942 19.723 0.710738 20.3908C1.64519 22.5518 9.18382 21.7222 14.4279 20.8588C9.43852 22.6896 2.46876 25.6798 2.7196 28.0208C2.79712 28.7443 2.99837 29.1 3.5786 29.539C5.40631 30.9221 11.2858 26.7562 15.4148 23.4586C11.9524 27.4504 7.55141 33.1561 8.85915 35.0384C9.27431 35.6359 9.62154 35.8515 10.3413 35.9583C12.8165 36.3256 16.3554 28.5728 18.3403 23.6495C17.4305 28.8793 16.349 37.3327 18.6458 38.3259C19.3136 38.6147 19.7223 38.6147 20.3902 38.3259C22.687 37.3327 21.6054 28.8787 20.6956 23.649C22.6804 28.5723 26.2195 36.3256 28.6948 35.9583C29.4145 35.8515 29.7618 35.6359 30.1769 35.0384C31.4847 33.1561 27.0837 27.4504 23.6213 23.4586C27.7502 26.7562 33.6298 30.9221 35.4575 29.539C36.0377 29.1 36.239 28.7443 36.3165 28.0208C36.5673 25.6798 29.5976 22.6896 24.6082 20.8588C29.8523 21.7222 37.3908 22.5518 38.3253 20.3908C38.6141 19.723 38.6141 19.3143 38.3253 18.6464C37.3908 16.4854 29.8523 17.315 24.6082 18.1785C29.5976 16.3476 36.5673 13.3574 36.3165 11.0164C36.2389 10.2929 36.0377 9.93725 35.4575 9.49819C33.6297 8.11514 27.7502 12.2811 23.6212 15.5787C27.0836 11.5869 31.4847 5.88119 30.1769 3.99886C29.7617 3.40129 29.4145 3.18578 28.6948 3.07897C26.2195 2.71163 22.6804 10.4648 20.6956 15.3881C21.6054 10.1584 22.687 1.70454 20.3902 0.711348Z" fill="#A0AF7B"/>
</svg>
