<svg viewBox="0 0 85 85" fill="none" xmlns="http://www.w3.org/2000/svg">
<path d="M42.5 10.625C36.6634 10.625 31.875 15.4134 31.875 21.25C31.875 24.0027 32.9594 26.4946 34.6973 28.3887C33.6158 28.9149 32.6594 29.5742 31.709 30.2979C30.9432 25.1959 26.554 21.25 21.25 21.25C15.4134 21.25 10.625 26.0384 10.625 31.875C10.625 34.7105 11.7818 37.2678 13.6133 39.1797C12.9261 39.5567 12.2403 39.9554 11.6211 40.4248C7.78982 43.3325 5.3125 47.9544 5.3125 53.125H10.625C10.625 49.6469 12.2987 46.6008 14.8584 44.6582C16.6438 43.3048 18.8281 42.5 21.25 42.5C22.8991 42.5 24.4488 42.9504 25.8984 43.6621L28.8037 45.0732L29.6338 41.9189C31.0892 36.1701 36.2682 31.875 42.5 31.875C48.725 31.875 53.9041 36.0958 55.3662 41.8359L56.1963 45.0732L59.1016 43.5791C60.5315 42.8781 62.0883 42.5 63.75 42.5C69.6479 42.5 74.375 47.2271 74.375 53.125H79.6875C79.6875 47.1357 76.3 41.9017 71.3867 39.1797C73.2182 37.2678 74.375 34.7105 74.375 31.875C74.375 26.0384 69.5866 21.25 63.75 21.25C58.446 21.25 54.0568 25.1959 53.291 30.2979C52.3407 29.5744 51.3843 28.9146 50.3027 28.3887C52.0406 26.4946 53.125 24.0027 53.125 21.25C53.125 15.4134 48.3366 10.625 42.5 10.625ZM42.5 15.9375C45.4655 15.9375 47.8125 18.2845 47.8125 21.25C47.8125 24.2155 45.4655 26.5625 42.5 26.5625C39.5345 26.5625 37.1875 24.2155 37.1875 21.25C37.1875 18.2845 39.5345 15.9375 42.5 15.9375ZM21.25 26.5625C24.2155 26.5625 26.5625 28.9095 26.5625 31.875C26.5625 34.8405 24.2155 37.1875 21.25 37.1875C18.2845 37.1875 15.9375 34.8405 15.9375 31.875C15.9375 28.9095 18.2845 26.5625 21.25 26.5625ZM63.75 26.5625C66.7155 26.5625 69.0625 28.9095 69.0625 31.875C69.0625 34.8405 66.7155 37.1875 63.75 37.1875C60.7845 37.1875 58.4375 34.8405 58.4375 31.875C58.4375 28.9095 60.7845 26.5625 63.75 26.5625ZM42.5 42.5C36.6634 42.5 31.875 47.2884 31.875 53.125C31.875 55.9605 33.0318 58.5178 34.8633 60.4297C29.95 63.1517 26.5625 68.3857 26.5625 74.375H31.875C31.875 68.4771 36.6021 63.75 42.5 63.75C48.3979 63.75 53.125 68.4771 53.125 74.375H58.4375C58.4375 68.3857 55.05 63.1517 50.1367 60.4297C51.9682 58.5178 53.125 55.9605 53.125 53.125C53.125 47.2884 48.3366 42.5 42.5 42.5ZM42.5 47.8125C45.4655 47.8125 47.8125 50.1595 47.8125 53.125C47.8125 56.0905 45.4655 58.4375 42.5 58.4375C39.5345 58.4375 37.1875 56.0905 37.1875 53.125C37.1875 50.1595 39.5345 47.8125 42.5 47.8125Z" fill="#154543"/>
</svg>
