<svg viewBox="0 0 85 85" fill="none" xmlns="http://www.w3.org/2000/svg">
<path d="M23.9896 29.5938C15.1846 29.5938 7.98958 36.7888 7.98958 45.5938C7.98958 50.8837 10.5899 55.5938 14.5729 58.5104C7.53931 62.0046 2.65625 69.2317 2.65625 77.5938H7.98958C7.98958 68.7256 15.1214 61.5938 23.9896 61.5938C32.8577 61.5938 39.9896 68.7256 39.9896 77.5938H45.3229C45.3229 68.7256 52.4548 61.5938 61.3229 61.5938C70.1911 61.5938 77.3229 68.7256 77.3229 77.5938H82.6562C82.6562 69.2317 77.7732 62.0046 70.7396 58.5104C74.7226 55.5938 77.3229 50.8837 77.3229 45.5938C77.3229 36.7888 70.1279 29.5938 61.3229 29.5938C52.5179 29.5938 45.3229 36.7888 45.3229 45.5938C45.3229 50.8837 47.9233 55.5938 51.9062 58.5104C48.017 60.4425 44.7602 63.4746 42.6562 67.2604C40.5523 63.4746 37.2955 60.4425 33.4062 58.5104C37.3892 55.5938 39.9896 50.8837 39.9896 45.5938C39.9896 36.7888 32.7946 29.5938 23.9896 29.5938ZM23.9896 34.9271C29.9122 34.9271 34.6562 39.6711 34.6562 45.5938C34.6562 51.5164 29.9122 56.2604 23.9896 56.2604C18.067 56.2604 13.3229 51.5164 13.3229 45.5938C13.3229 39.6711 18.067 34.9271 23.9896 34.9271ZM61.3229 34.9271C67.2455 34.9271 71.9896 39.6711 71.9896 45.5938C71.9896 51.5164 67.2455 56.2604 61.3229 56.2604C55.4003 56.2604 50.6562 51.5164 50.6562 45.5938C50.6562 39.6711 55.4003 34.9271 61.3229 34.9271Z" fill="#154543"/>
</svg>
