<svg viewBox="0 0 85 85" fill="none" xmlns="http://www.w3.org/2000/svg">
<path d="M43.9375 13.2812C33.5313 13.2812 25.0375 21.7179 25.0375 32.054C25.0375 38.5141 28.3616 44.2619 33.3906 47.642C23.7594 51.7448 16.9375 61.2355 16.9375 72.2813H22.3375C22.3375 65.4878 25.5036 59.446 30.4375 55.5199L42.0813 66.1634L43.9375 67.9233L45.7938 66.1634L57.4375 55.5199C62.3714 59.446 65.5375 65.4878 65.5375 72.2813H70.9375C70.9375 61.2355 64.1156 51.7448 54.4844 47.642C59.5134 44.2619 62.8375 38.5141 62.8375 32.054C62.8375 21.7179 54.3437 13.2812 43.9375 13.2812ZM43.9375 18.6449C51.4253 18.6449 57.4375 24.6166 57.4375 32.054C57.4375 39.4914 51.4253 45.4631 43.9375 45.4631C36.4497 45.4631 30.4375 39.4914 30.4375 32.054C30.4375 24.6166 36.4497 18.6449 43.9375 18.6449ZM43.9375 50.8267C47.0234 50.8267 49.9773 51.4374 52.6281 52.5866L43.9375 60.6321L35.2469 52.5866C37.8977 51.4374 40.8516 50.8267 43.9375 50.8267Z" fill="#0D5450"/>
</svg>
