<svg viewBox="0 0 39 39" fill="none" xmlns="http://www.w3.org/2000/svg">
<path d="M12.1553 29.8188L17.1928 33.7188C17.8428 34.3688 19.3053 34.6938 20.2803 34.6938H26.4553C28.4053 34.6938 30.5178 33.2313 31.0053 31.2813L34.9053 19.4188C35.7178 17.1438 34.2553 15.1938 31.8178 15.1938H25.3178C24.3428 15.1938 23.5303 14.3813 23.6928 13.2438L24.5053 8.04376C24.8303 6.58126 23.8553 4.95626 22.3928 4.46876C21.0928 3.98126 19.4678 4.63126 18.8178 5.60626L12.1553 15.5188" stroke="#292D32" stroke-width="1.5" stroke-miterlimit="10"/>
<path d="M3.86719 29.8188V13.8938C3.86719 11.6188 4.84219 10.8063 7.11719 10.8063H8.74219C11.0172 10.8063 11.9922 11.6188 11.9922 13.8938V29.8188C11.9922 32.0938 11.0172 32.9063 8.74219 32.9063H7.11719C4.84219 32.9063 3.86719 32.0938 3.86719 29.8188Z" stroke="#292D32" stroke-width="1.5" stroke-linecap="round" stroke-linejoin="round"/>
</svg>
