<svg viewBox="0 0 85 85" fill="none" xmlns="http://www.w3.org/2000/svg">
<path d="M42.5 5.3125C41.033 5.3125 39.8438 6.50174 39.8438 7.96875C39.8438 8.44062 40.043 8.82981 40.2588 9.21387L33.4521 18.2617L24.5703 16.0205L23.9062 15.8545C23.8609 14.4273 22.6882 13.2812 21.25 13.2812C19.783 13.2812 18.5938 14.4705 18.5938 15.9375C18.5938 17.3757 19.7398 18.5484 21.167 18.5938L21.333 19.2578L23.9062 29.5508V31.875C23.9062 38.2738 27.1765 43.9667 32.124 47.3145C22.6488 51.3781 15.9375 60.7784 15.9375 71.7188H21.25C21.25 59.9498 30.731 50.4688 42.5 50.4688C54.269 50.4688 63.75 59.9498 63.75 71.7188H69.0625C69.0625 60.7784 62.3512 51.3781 52.876 47.3145C57.8235 43.9667 61.0938 38.2738 61.0938 31.875V29.5508L63.667 19.2578L63.833 18.5938C65.2602 18.5484 66.4062 17.3757 66.4062 15.9375C66.4062 14.4705 65.217 13.2812 63.75 13.2812C62.3118 13.2812 61.1391 14.4273 61.0938 15.8545L60.4297 16.0205L51.5479 18.2617L44.7412 9.21387C44.957 8.82981 45.1562 8.44062 45.1562 7.96875C45.1562 6.50174 43.967 5.3125 42.5 5.3125ZM42.5 15.1074L48.3105 22.8271L49.3896 24.2383L51.1328 23.8232L57.4414 22.2461L56.3623 26.5625H28.6377L27.5586 22.2461L33.8672 23.8232L35.6104 24.2383L36.6895 22.8271L42.5 15.1074ZM29.2188 31.875H55.7812C55.7812 39.2425 49.8675 45.1562 42.5 45.1562C35.1325 45.1562 29.2188 39.2425 29.2188 31.875Z" fill="#154543"/>
</svg>
